<svg xmlns="http://www.w3.org/2000/svg" viewBox="0 0 100 100">
  <defs>
    <linearGradient id="logo-bg" x1="16" y1="12" x2="84" y2="90" gradientUnits="userSpaceOnUse">
      <stop offset="0%" stop-color="#201A1E"/>
      <stop offset="100%" stop-color="#100D11"/>
    </linearGradient>
    <linearGradient id="logo-bottle" x1="50" y1="16" x2="50" y2="84" gradientUnits="userSpaceOnUse">
      <stop offset="0%" stop-color="#A40B72"/>
      <stop offset="52%" stop-color="#7B084F"/>
      <stop offset="100%" stop-color="#4F062E"/>
    </linearGradient>
    <radialGradient id="logo-grape-pink" cx="35%" cy="32%" r="80%">
      <stop offset="0%" stop-color="#B51B82"/>
      <stop offset="65%" stop-color="#8B0E61"/>
      <stop offset="100%" stop-color="#5E0A40"/>
    </radialGradient>
    <radialGradient id="logo-grape-green" cx="35%" cy="32%" r="80%">
      <stop offset="0%" stop-color="#A5C86F"/>
      <stop offset="72%" stop-color="#8EAF58"/>
      <stop offset="100%" stop-color="#6D8B40"/>
    </radialGradient>
    <filter id="logo-glow" x="-35%" y="-35%" width="170%" height="180%">
      <feDropShadow dx="0" dy="4" stdDeviation="5" flood-color="#97196C" flood-opacity="0.42"/>
    </filter>
    <filter id="logo-rack-glow" x="-20%" y="-20%" width="140%" height="150%">
      <feDropShadow dx="0" dy="2" stdDeviation="2.2" flood-color="#5D6587" flood-opacity="0.22"/>
    </filter>
  </defs>

  <rect width="100" height="100" rx="24" fill="url(#logo-bg)"/>

  <g transform="translate(0 2)">
    <g filter="url(#logo-rack-glow)" fill="#505978" stroke="#2F3650" stroke-width="1.2">
      <rect x="12.5" y="31" width="25.5" height="3.5" rx="0.8"/>
      <rect x="12.5" y="43" width="25.5" height="3.5" rx="0.8"/>
      <rect x="12.5" y="55" width="25.5" height="3.5" rx="0.8"/>
      <rect x="62" y="31" width="25.5" height="3.5" rx="0.8"/>
      <rect x="62" y="43" width="25.5" height="3.5" rx="0.8"/>
      <rect x="62" y="55" width="25.5" height="3.5" rx="0.8"/>
    </g>

    <g filter="url(#logo-glow)">
      <path
        d="M46.8 14h6.4a1.9 1.9 0 0 1 1.9 1.9v4.3c0 .8-.48 1.5-1.18 1.77V33c0 3.5 1.82 6.18 4.28 9.08 2.98 3.52 4.82 8.16 4.82 13.3v20.5c0 2.6-1.76 4.84-4.28 5.45-5.88 1.42-11.98 1.42-17.86 0-2.52-.61-4.28-2.85-4.28-5.45v-20.5c0-5.14 1.84-9.78 4.82-13.3 2.46-2.9 4.28-5.58 4.28-9.08V21.99a1.92 1.92 0 0 1-1.18-1.77v-4.3A1.9 1.9 0 0 1 46.8 14Z"
        fill="url(#logo-bottle)"
        stroke="#5F0B43"
        stroke-width="1.45"
      />
      <path
        d="M48.2 31.8c-3.45 2.54-5.7 7.2-5.7 13.1v14.7c2.86-.82 5.56-2.76 6.97-5.64.9-1.86 1.03-3.74 1.03-6.45V36.1c0-1.56-.53-3.03-2.3-4.3Z"
        fill="rgba(255,214,248,0.22)"
      />
    </g>

    <g stroke="#5C113F" stroke-width="1.05">
      <circle cx="24.5" cy="40" r="5.05" fill="url(#logo-grape-pink)"/>
      <circle cx="35.5" cy="40" r="5.05" fill="url(#logo-grape-green)"/>
      <circle cx="24.5" cy="52" r="5.05" fill="url(#logo-grape-pink)"/>
      <circle cx="35.5" cy="52" r="5.05" fill="url(#logo-grape-pink)"/>
      <circle cx="65.5" cy="40" r="5.05" fill="url(#logo-grape-pink)"/>
      <circle cx="76.5" cy="40" r="5.05" fill="url(#logo-grape-pink)"/>
      <circle cx="65.5" cy="52" r="5.05" fill="url(#logo-grape-green)"/>
      <circle cx="76.5" cy="52" r="5.05" fill="url(#logo-grape-pink)"/>
    </g>
  </g>
</svg>
