<svg xmlns="http://www.w3.org/2000/svg" viewBox="0 0 100 100">
  <g transform="translate(0 1)">
    <path
      d="M45 50 58.9 82.3c.78 1.82.07 3.94-1.66 4.95-.9.53-1.92.8-2.97.8h-8.4c-1.82 0-3.46-1.08-4.2-2.74l-4.86-11.01c-.67-1.53.04-3.3 1.57-3.97.37-.16.77-.24 1.17-.24h1.79c1.8 0 3.49-1.05 4.22-2.7.91-2.01.4-4.38-1.24-5.84l-.6-.54c-1.73-1.53-2.42-3.92-1.77-6.13L45 50Z"
      fill="rgba(255,255,255,0.24)"
      stroke="rgba(255,255,255,0.38)"
      stroke-width="1.15"
      stroke-linejoin="round"
    />
    <circle cx="29.5" cy="38.5" r="7.1" fill="rgba(255,255,255,0.24)" stroke="rgba(255,255,255,0.38)" stroke-width="1.05"/>
    <circle cx="41.5" cy="38.8" r="7.5" fill="rgba(255,255,255,0.24)" stroke="rgba(255,255,255,0.38)" stroke-width="1.05"/>
    <circle cx="36" cy="51.5" r="8.3" fill="rgba(255,255,255,0.24)" stroke="rgba(255,255,255,0.38)" stroke-width="1.05"/>
    <circle cx="39.8" cy="66.2" r="6.9" fill="rgba(255,255,255,0.24)" stroke="rgba(255,255,255,0.38)" stroke-width="1.05"/>
    <circle cx="46.8" cy="79.4" r="5.5" fill="rgba(255,255,255,0.24)" stroke="rgba(255,255,255,0.38)" stroke-width="1.05"/>
    <path
      d="M21.6 16.3c6.2-1.82 13.16.38 17.34 5.73-4.17.87-8.28.14-12.03-2l-3.01 2.46 4.2 1.64c-1.75 1.75-4 2.91-6.42 3.37-3.37.64-6.57-.46-9.03-3.1 2.09-3.5 5.3-6.2 8.95-8.1Z"
      fill="rgba(255,255,255,0.2)"
      stroke="rgba(255,255,255,0.38)"
      stroke-width="1"
      stroke-linejoin="round"
    />
    <path
      d="M41.9 29.1c.1-4.65 2.1-8.9 5.73-11.83.82-.66 2.05-.5 2.7.32.49.6.51 1.45.07 2.09-2.1 3.08-3.3 6.65-3.49 10.4 1.29-1.83 3.13-3.18 5.3-3.81 2.05-.59 4.26-.4 6.1.53.37 2.33-.36 4.32-2.08 5.64-1.8 1.38-4.1 1.89-6.38 1.36l-2.85-.63"
      fill="none"
      stroke="rgba(255,255,255,0.38)"
      stroke-width="1.28"
      stroke-linecap="round"
      stroke-linejoin="round"
    />
    <path
      d="M58.6 43.5h2.72a1.55 1.55 0 0 1 1.55 1.55v1.63c0 .6-.35 1.14-.89 1.39v5.19c0 1.77.93 3.13 2.18 4.61 1.52 1.8 2.46 4.17 2.46 6.79V76.2c0 1.34-.9 2.49-2.2 2.8-2.97.72-6.05.72-9.03 0a2.87 2.87 0 0 1-2.2-2.8V64.72c0-2.62.94-4.99 2.47-6.79 1.24-1.48 2.17-2.84 2.17-4.61v-5.19a1.53 1.53 0 0 1-.85-1.39v-1.63a1.55 1.55 0 0 1 1.54-1.55Z"
      fill="rgba(255,255,255,0.24)"
      stroke="rgba(255,255,255,0.38)"
      stroke-width="1.02"
    />
    <path
      d="M67.4 20.1h3.36a1.68 1.68 0 0 1 1.68 1.68v1.96c0 .68-.41 1.28-1.02 1.53v7.43c0 2.55 1.3 4.47 3.04 6.54 2.1 2.47 3.39 5.73 3.39 9.33v10.18l-3.74 7.56V49.06c0-2.03-.4-3.89-1.34-5.68-.53-1.02-1.24-1.93-2-2.85-1.67-2-2.95-3.85-2.95-6.49V24.4a1.66 1.66 0 0 1-1.02-1.53v-1.97a1.68 1.68 0 0 1 1.68-1.68Z"
      fill="rgba(255,255,255,0.24)"
      stroke="rgba(255,255,255,0.38)"
      stroke-width="1.02"
      stroke-linejoin="round"
    />
  </g>
</svg>
